<svg width="116" height="116" viewBox="0 0 116 116" fill="none" xmlns="http://www.w3.org/2000/svg">
<path d="M115.296 3C115.296 1.34315 113.953 -1.27471e-07 112.296 -1.27471e-07H85.2965C83.6396 -1.27471e-07 82.2965 1.34315 82.2965 3C82.2965 4.65685 83.6396 6 85.2965 6H109.296V30C109.296 31.6569 110.64 33 112.296 33C113.953 33 115.296 31.6569 115.296 30V3ZM77.6482 37.6482L79.7696 39.7696L114.418 5.12132L112.296 3L110.175 0.87868L75.5269 35.5269L77.6482 37.6482Z" fill="white"/>
<path d="M112.296 115.296C113.953 115.296 115.296 113.953 115.296 112.296V85.2965C115.296 83.6396 113.953 82.2965 112.296 82.2965C110.64 82.2965 109.296 83.6396 109.296 85.2965V109.296H85.2965C83.6396 109.296 82.2965 110.64 82.2965 112.296C82.2965 113.953 83.6396 115.296 85.2965 115.296H112.296ZM77.6482 77.6482L75.5269 79.7696L110.175 114.418L112.296 112.296L114.418 110.175L79.7696 75.5269L77.6482 77.6482Z" fill="white"/>
<path d="M-3.30098e-06 112.296C-3.30098e-06 113.953 1.34314 115.296 3 115.296H30C31.6569 115.296 33 113.953 33 112.296C33 110.64 31.6569 109.296 30 109.296H6V85.2965C6 83.6396 4.65685 82.2965 3 82.2965C1.34314 82.2965 -3.30098e-06 83.6396 -3.30098e-06 85.2965V112.296ZM37.6482 77.6482L35.5269 75.5269L0.878676 110.175L3 112.296L5.12132 114.418L39.7696 79.7696L37.6482 77.6482Z" fill="white"/>
<path d="M3 -1.27471e-07C1.34315 -1.27471e-07 -1.27471e-07 1.34315 -1.27471e-07 3V30C-1.27471e-07 31.6569 1.34315 33 3 33C4.65685 33 6 31.6569 6 30V6H30C31.6569 6 33 4.65685 33 3C33 1.34315 31.6569 -1.27471e-07 30 -1.27471e-07H3ZM37.6482 37.6482L39.7696 35.5269L5.12132 0.87868L3 3L0.87868 5.12132L35.5269 39.7696L37.6482 37.6482Z" fill="white"/>
</svg>
